<svg width="240" height="80" xmlns="http://www.w3.org/2000/svg" xmlns:xlink="http://www.w3.org/1999/xlink" overflow="hidden"><defs><clipPath id="clip0"><rect x="0" y="0" width="240" height="80"/></clipPath></defs><g clip-path="url(#clip0)"><path d="M72.646 19.838C70.4581 6.89659 58.1933-1.82082 45.2519 0.367111 43.8888 0.597565 42.5484 0.946518 41.246 1.41 41.8213 1.24673 42.4237 1.20116 43.017 1.276 43.303 1.3 43.597 1.338 43.89 1.382L43.94 1.39101C44.21 1.433 44.478 1.481 44.74 1.53101L44.857 1.55301C45.135 1.60701 45.398 1.66101 45.644 1.711 45.801 1.742 45.944 1.77 46.081 1.79601L46.273 1.834C49.573 2.38553 52.7353 3.56956 55.586 5.321 55.986 5.575 56.3813 5.84167 56.772 6.121 62.5786 10.532 65.8519 17.511 65.531 24.796 65.373 30.009 63.165 34.687 60.584 39.112 57.752 43.969 55.678 47.718 55.555 53.512 55.491 56.469 55.773 59.467 55.285 62.401 54.97 64.301 54.045 67.364 52.512 68.656 52.0158 69.1204 51.2683 69.1899 50.695 68.825 50.4688 68.6195 50.2935 68.364 50.183 68.079 48.606 64.657 49.216 60.738 48.109 57.193 48.007 56.8657 47.896 56.547 47.776 56.237 47.733 56.127 47.686 56.022 47.641 55.913 47.561 55.713 47.481 55.523 47.394 55.335 47.333 55.206 47.269 55.082 47.206 54.956 47.127 54.799 47.048 54.641 46.963 54.488 46.889 54.354 46.812 54.223 46.733 54.088 46.654 53.953 46.572 53.821 46.487 53.688 46.402 53.555 46.309 53.42 46.216 53.288 46.136 53.175 46.055 53.063 45.971 52.954 45.871 52.818 45.762 52.684 45.652 52.554 45.576 52.462 45.497 52.373 45.418 52.285 45.296 52.146 45.173 52.01 45.044 51.885 44.979 51.818 44.911 51.755 44.844 51.691 44.695 51.547 44.544 51.405 44.39 51.27 44.359 51.243 44.326 51.219 44.29 51.193 43.012 50.1212 41.5076 49.3529 39.89 48.946L39.872 48.941C39.591 48.869 39.305 48.807 39.013 48.753L38.994 48.753C38.1337 48.5946 37.2607 48.5149 36.386 48.515 40.6132 48.515 44.04 51.9418 44.04 56.169 44.04 56.1693 44.04 56.1697 44.04 56.17L44.04 75.813C44.0396 78.0961 45.8901 79.9474 48.1732 79.9478 49.3503 79.948 50.4716 79.4465 51.256 78.569L53.938 75.569C58.2764 70.7191 60.6749 64.4402 60.675 57.933 60.5846 51.1332 62.9207 44.5237 67.264 39.291 71.8574 33.9274 73.8293 26.7998 72.646 19.838Z" fill="#2BAAEC"/><path d="M22.221 70.122C21.9423 69.7788 21.6918 69.4136 21.472 69.03 19.972 66.413 20.11 63.33 19.838 60.342 19.3935 54.821 18.3613 49.3631 16.759 44.061 13.435 33.483 7.71701 21.007 17.447 11.873 25.247 4.55301 36.43 8.13501 45.754 9.233 48.136 9.51201 51.228 9.86501 53.554 10.133 49.767 8.806 45.538 7.002 41.197 4.964 34.448 1.795 26.777-0.916992 19.239 0.436996 1.83899 3.56401-5.96799 25.306 5.18799 38.906 9.62421 44.2585 12.066 50.9842 12.097 57.936 12.0969 64.443 14.4951 70.7219 18.833 75.572L21.517 78.572C23.0385 80.2736 25.6512 80.4196 27.3528 78.8982 28.23 78.1138 28.7313 76.9927 28.731 75.816L28.731 56.171C28.7309 54.5711 29.2343 53.0118 30.17 51.714 24.889 54.838 26.746 75.691 22.221 70.122Z" fill="#2BAAEC"/><text fill="#363636" font-family="Roboto Slab,Roboto Slab_MSFontService,sans-serif" font-weight="400" font-size="24" transform="translate(90 38)">Dential<tspan fill="#2BAAEC" font-size="24" x="83" y="0">Clinic</tspan><tspan fill="#626262" font-family="Roboto,Roboto_MSFontService,sans-serif" font-size="16" x="0" y="24">Stomatology Health</tspan></text></g></svg>